<svg width="96" height="32" viewBox="0 0 96 32" fill="none" xmlns="http://www.w3.org/2000/svg">
<g clip-path="url(#clip0_56_317)">
<path d="M8.20725 6.53415C3.67781 6.53415 0 10.1894 0 14.6962C0 19.203 3.67781 22.8582 8.20725 22.8582C10.0236 22.8582 11.6967 22.2704 13.0608 21.2756C13.0909 21.2529 13.1361 21.2756 13.1361 21.3132V23.838C13.1361 26.5436 10.9279 28.7367 8.21479 28.7367C5.50165 28.7367 3.29345 26.5436 3.29345 23.838V23.7927C3.27084 22.911 2.5398 22.2101 1.65049 22.2101C0.761187 22.2101 0.0376825 22.9185 0.0075365 23.7927V23.838C0.0075365 28.3448 3.68535 32 8.21479 32C12.7442 32 16.422 28.3448 16.422 23.838V13.0155C16.3994 12.1338 15.6684 11.4253 14.7791 11.4253C13.8898 11.4253 13.1663 12.1338 13.1361 13.0155V14.6962C13.1361 17.4018 10.9279 19.5949 8.21479 19.5949C5.50165 19.5949 3.29345 17.4018 3.29345 14.6962C3.29345 11.9906 5.49411 9.79746 8.21479 9.79746H14.8017C15.7061 9.75977 16.422 9.0212 16.422 8.11682V6.57937C16.422 6.57937 16.3994 6.53415 16.3768 6.53415H8.21479H8.20725Z" fill="#FF4D00"/>
<path d="M31.1562 13.0608H22.0144C22.0144 13.0608 21.9541 13.0231 21.9692 12.9929C22.6626 11.1239 24.4713 9.79746 26.5891 9.79746C28.7068 9.79746 30.5156 11.1314 31.209 12.9929C31.224 13.0231 31.1939 13.0608 31.1637 13.0608M26.5891 6.53415C22.0596 6.53415 18.3818 10.1894 18.3818 14.6962C18.3818 19.203 22.0596 22.8582 26.5891 22.8582C28.7897 22.8582 30.7869 21.9991 32.2641 20.5897C32.6183 20.2883 32.8444 19.8436 32.8444 19.3462C32.8444 18.4418 32.1133 17.7108 31.2014 17.7108C30.7568 17.7108 30.3498 17.8917 30.0559 18.1781C29.1666 19.0523 27.9381 19.5874 26.5891 19.5874C24.4713 19.5874 22.6626 18.261 21.9692 16.3919C21.9541 16.3618 21.9843 16.3241 22.0144 16.3241H34.5853C34.5853 16.3241 34.6305 16.309 34.6381 16.2864C34.736 15.7739 34.7963 15.2388 34.7963 14.6962C34.7963 10.1894 31.1261 6.53415 26.5891 6.53415Z" fill="#FF4D00"/>
<path d="M73.1718 13.0608H64.0301C64.0301 13.0608 63.9698 13.0231 63.9848 12.9929C64.6782 11.1239 66.487 9.79746 68.6047 9.79746C70.7225 9.79746 72.5312 11.1314 73.2246 12.9929C73.2397 13.0231 73.2095 13.0608 73.1794 13.0608M68.6047 6.53415C64.0753 6.53415 60.3975 10.1894 60.3975 14.6962C60.3975 19.203 64.0753 22.8582 68.6047 22.8582C70.8054 22.8582 72.8025 21.9991 74.2797 20.5897C74.6339 20.2883 74.86 19.8436 74.86 19.3462C74.86 18.4418 74.129 17.7108 73.2171 17.7108C72.7724 17.7108 72.3654 17.8917 72.0715 18.1781C71.1822 19.0523 69.9537 19.5874 68.6047 19.5874C66.487 19.5874 64.6782 18.261 63.9848 16.3919C63.9698 16.3618 63.9999 16.3241 64.0301 16.3241H76.6009C76.6009 16.3241 76.6462 16.309 76.6462 16.2864C76.7441 15.7739 76.8044 15.2388 76.8044 14.6962C76.8044 10.1894 73.1342 6.53415 68.5972 6.53415" fill="#FF4D00"/>
<path d="M50.2236 19.5949C47.5029 19.5949 45.3022 17.4018 45.3022 14.6962C45.3022 11.9906 47.5029 9.79746 50.2236 9.79746C52.9443 9.79746 55.1449 11.9906 55.1449 14.6962C55.1449 17.4018 52.9367 19.5949 50.2236 19.5949ZM56.8331 0C55.9061 0 55.1449 0.761187 55.1449 1.68818V8.0716C55.1449 8.10928 55.0997 8.13189 55.0695 8.10928C53.713 7.11446 52.0323 6.53415 50.216 6.53415C45.6866 6.53415 42.0088 10.1894 42.0088 14.6962C42.0088 19.203 45.6791 22.8582 50.216 22.8582C52.0323 22.8582 53.713 22.2704 55.0771 21.2756C55.1072 21.2529 55.1449 21.2756 55.1449 21.3132C55.1901 22.2553 56.0418 22.9863 57.0215 22.8431C57.8505 22.7226 58.4233 21.9312 58.4233 21.0947V0.045219C58.4233 0.045219 58.4007 0 58.3781 0H56.8331Z" fill="#FF4D00"/>
<path d="M86.9865 19.5949C84.2659 19.5949 82.0652 17.4018 82.0652 14.6962C82.0652 11.9906 84.2734 9.79746 86.9865 9.79746C89.6997 9.79746 91.9079 11.9906 91.9079 14.6962C91.9079 17.4018 89.6997 19.5949 86.9865 19.5949ZM95.141 6.53415H93.5508C92.6691 6.53415 91.9606 7.21997 91.9154 8.08667C91.9154 8.12435 91.8777 8.14696 91.8476 8.12435C90.4835 7.12953 88.8028 6.54169 86.9865 6.54169C82.4571 6.54169 78.7793 10.1969 78.7793 14.7037C78.7793 19.2106 82.4496 22.8658 86.9865 22.8658C88.8028 22.8658 90.4835 22.2779 91.8476 21.2831C91.8777 21.2605 91.9154 21.2831 91.9154 21.3208C91.9606 22.2628 92.8123 22.9939 93.792 22.8507C94.621 22.7301 95.1938 21.9388 95.1938 21.1022V6.57937C95.1938 6.57937 95.1712 6.53415 95.1486 6.53415" fill="#FF4D00"/>
<path d="M38.4433 6.53415C37.5163 6.53415 36.7627 7.2878 36.7627 8.21479V21.2303C36.7627 22.2101 37.6294 22.9863 38.6393 22.8507C39.4683 22.7376 40.0411 21.9463 40.0411 21.1022V6.57937C40.0411 6.57937 40.0185 6.53415 39.9959 6.53415H38.4433Z" fill="#FF4D00"/>
<path d="M38.4057 1.62789C37.5013 1.62789 36.7627 2.35893 36.7627 3.26331C36.7627 4.16769 37.4937 4.89873 38.4057 4.89873C39.3176 4.89873 40.0486 4.16769 40.0486 3.26331C40.0486 2.35893 39.3176 1.62789 38.4057 1.62789Z" fill="#FF4D00"/>
</g>
<defs>
<clipPath id="clip0_56_317">
<rect width="95.1936" height="32" fill="white"/>
</clipPath>
</defs>
</svg>
